<?xml version="1.0" encoding="UTF-8"?>
<!DOCTYPE svg PUBLIC "-//W3C//DTD SVG 1.0//EN" "http://www.w3.org/TR/2001/REC-SVG-20010904/DTD/svg10.dtd">
<!-- Creator: CorelDRAW 2020 (64-Bit) -->
<svg xmlns="http://www.w3.org/2000/svg" xml:space="preserve" width="36px" height="36px" version="1.0" shape-rendering="geometricPrecision" text-rendering="geometricPrecision" image-rendering="optimizeQuality" fill-rule="evenodd" clip-rule="evenodd"
viewBox="0 0 36 36"
 xmlns:xlink="http://www.w3.org/1999/xlink"
 xmlns:xodm="http://www.corel.com/coreldraw/odm/2003">
 <g id="Слой_x0020_1">
  <metadata id="CorelCorpID_0Corel-Layer"/>
  <g id="_2055160101648">
   <path fill="#1A1A1A" d="M9.89 1.35c-4.26,0.77 -7.56,3.87 -8.49,8.1 -0.52,2.37 -0.52,14.3 -0.07,16.76 0.77,4.2 3.97,7.46 8.11,8.39 2.3,0.51 14.41,0.53 16.8,0.07 4.21,-0.8 7.42,-3.94 8.36,-8.11 0.52,-2.31 0.52,-14.4 0.06,-16.8 -0.79,-4.14 -3.97,-7.48 -8.1,-8.36 -2.5,-0.53 -14.09,-0.52 -16.67,-0.05zm0.14 1.37c2.01,-0.41 5.46,-0.31 7.56,-0.31 2.39,0 4.88,0 7.26,0.15 4.16,0.26 7.66,3.3 8.45,7.38 0.4,2.1 0.31,5.43 0.31,7.6 0,2.41 -0.01,4.91 -0.16,7.32 -0.27,4.18 -3.29,7.64 -7.39,8.44 -2.06,0.41 -5.46,0.31 -7.6,0.31 -2.41,0 -4.92,-0.01 -7.32,-0.16 -4.18,-0.27 -7.62,-3.3 -8.43,-7.4 -0.4,-2.04 -0.3,-5.46 -0.3,-7.58 0,-2.41 0,-4.93 0.15,-7.33 0.28,-4.29 3.29,-7.57 7.47,-8.42zm6.48 7.1c-10.96,2.12 -7.68,18.55 3.12,16.39 4.56,-0.92 7.44,-5.27 6.57,-9.84 -0.87,-4.52 -5.17,-7.43 -9.69,-6.55zm0.62 1.79c8.32,-1.26 10.19,11.58 1.9,12.79 -8.51,1.25 -10.46,-11.48 -1.9,-12.79zm9.84 -3.63c-0.7,0.27 -1.09,0.68 -0.86,1.46 0.21,0.74 0.91,1 1.62,0.81 1.22,-0.31 0.78,-2.84 -0.76,-2.27z"/>
   <path fill="#1A1A1A" d="M9.99 1.89c-4.04,0.73 -7.17,3.66 -8.06,7.68 -0.5,2.29 -0.5,14.16 -0.06,16.55 0.72,3.97 3.77,7.07 7.69,7.95 2.22,0.49 14.27,0.51 16.58,0.07 3.99,-0.76 7.04,-3.74 7.93,-7.7 0.5,-2.22 0.5,-14.26 0.06,-16.57 -0.75,-3.93 -3.77,-7.11 -7.69,-7.94 -2.42,-0.51 -13.95,-0.5 -16.45,-0.04zm-0.07 0.3c2.06,-0.42 5.53,-0.32 7.67,-0.32 2.4,0 4.9,0 7.3,0.15 4.4,0.28 8.11,3.49 8.94,7.82 0.41,2.14 0.32,5.49 0.32,7.7 0,2.42 0,4.94 -0.16,7.35 -0.28,4.44 -3.48,8.09 -7.83,8.95 -2.1,0.41 -5.52,0.32 -7.7,0.31 -2.42,0 -4.94,0 -7.35,-0.15 -4.44,-0.29 -8.08,-3.5 -8.93,-7.84 -0.41,-2.09 -0.32,-5.52 -0.32,-7.69 0,-2.42 0,-4.95 0.16,-7.36 0.29,-4.55 3.49,-8.03 7.9,-8.92zm6.69 8.16c-10.26,1.99 -7.18,17.35 2.91,15.32 4.27,-0.85 6.96,-4.93 6.15,-9.2 -0.81,-4.23 -4.83,-6.93 -9.06,-6.12zm0.44 0.73c9.03,-1.38 11.06,12.54 2.06,13.86 -9.22,1.35 -11.33,-12.45 -2.06,-13.86zm10.11 -2.59c-0.44,0.17 -0.67,0.32 -0.53,0.8 0.13,0.45 0.54,0.54 0.96,0.43 0.48,-0.12 0.39,-1.53 -0.43,-1.23z"/>
   <path fill="#1A1A1A" d="M27.15 9.1c0,0.02 0,0.03 0.01,0.04 0.03,0.13 0.2,0.08 0.16,0.17 0.03,-0.06 0.02,-0.19 -0.01,-0.29 -0.05,0.02 -0.11,0.05 -0.16,0.08z"/>
  </g>
 </g>
</svg>
