<?xml version="1.0" encoding="UTF-8"?>
<!DOCTYPE svg PUBLIC "-//W3C//DTD SVG 1.0//EN" "http://www.w3.org/TR/2001/REC-SVG-20010904/DTD/svg10.dtd">
<!-- Creator: CorelDRAW 2020 (64-Bit) -->
<svg xmlns="http://www.w3.org/2000/svg" xml:space="preserve" width="36px" height="36px" version="1.0" shape-rendering="geometricPrecision" text-rendering="geometricPrecision" image-rendering="optimizeQuality" fill-rule="evenodd" clip-rule="evenodd"
viewBox="0 0 36 36"
 xmlns:xlink="http://www.w3.org/1999/xlink"
 xmlns:xodm="http://www.corel.com/coreldraw/odm/2003">
 <g id="Слой_x0020_1">
  <metadata id="CorelCorpID_0Corel-Layer"/>
  <path fill="black" fill-rule="nonzero" d="M12.69 11.3c-0.23,-0.05 -0.45,-0.11 -0.67,-0.23l-0.51 -0.27 -0.01 -0.59c-0.02,-0.59 0.32,-1.08 0.8,-1.44 0.43,-0.32 1.02,-0.57 1.45,-0.65 0.86,-0.16 2.99,-0.32 4.67,-0.19 1.35,0.1 2.53,0.43 2.98,1.15 0.61,0.98 0.51,2.85 0.44,4.29l-0.06 1.22c-0.02,0.56 -0.07,1.56 0.06,2.23 0.25,-0.23 0.49,-0.51 0.59,-0.63 0.55,-0.73 1.13,-1.63 1.65,-2.55 0.53,-0.95 1.03,-1.95 1.39,-2.85l0.1 -0.25c0.33,-0.85 0.62,-1.62 1.83,-1.75 1.13,-0.09 2.64,-0.02 3.81,-0.02l0.86 -0.03c0.8,-0.04 1.55,-0.07 2.15,0.13 1.09,0.35 1.61,1.09 1.1,2.68 -0.52,1.6 -2.28,3.9 -3.54,5.53l-0.87 1.15c-0.55,0.73 -0.94,1.23 -0.53,1.69 0.46,0.51 0.96,0.98 1.46,1.46 0.74,0.7 1.49,1.41 2.28,2.41 1.72,2.18 1.72,3.45 0.7,4.26 -0.87,0.68 -2.42,0.66 -4.16,0.63 -0.59,-0.01 -1.2,-0.02 -1.8,0 -0.5,0.01 -0.89,0 -1.28,-0.07 -0.41,-0.08 -0.79,-0.23 -1.23,-0.48 -1.07,-0.61 -1.94,-1.59 -2.71,-2.47 -0.48,-0.55 -0.92,-1.05 -1.26,-1.28 -0.06,-0.04 -0.13,-0.02 -0.22,0.12 -0.29,0.44 -0.31,1 -0.33,1.49 -0.05,1.21 -0.09,2.18 -1.67,2.55 -0.49,0.11 -1.34,0.09 -2.03,0.08l-0.64 0c-0.79,0.01 -1.56,-0.08 -2.27,-0.25 -0.81,-0.18 -1.57,-0.46 -2.23,-0.77 -0.26,-0.12 -0.58,-0.3 -0.89,-0.48 -0.32,-0.19 -0.64,-0.4 -0.86,-0.55 -1.07,-0.76 -1.67,-1.2 -2.22,-1.74 -0.56,-0.54 -1.03,-1.13 -1.82,-2.16 -0.73,-0.94 -1.41,-1.91 -2.07,-2.95 -0.65,-1.01 -1.29,-2.09 -1.93,-3.27 -0.29,-0.53 -0.59,-1.08 -0.89,-1.68 -0.28,-0.56 -0.56,-1.14 -0.83,-1.75l-0.32 -0.67c-0.34,-0.69 -0.62,-1.28 -0.63,-1.88 -0.02,-1.06 0.55,-1.69 2.27,-1.72l0.67 -0.01c1.42,-0.04 3.99,-0.11 4.68,0.19 0.93,0.4 1.14,0.92 1.44,1.67l0.12 0.3c0.27,0.61 0.78,1.65 1.29,2.64 0.46,0.9 0.93,1.75 1.2,2.17l0.45 0.65c0.15,0.2 0.38,0.46 0.61,0.64 0.1,-0.31 0.17,-0.8 0.22,-1.33 0.09,-0.89 0.09,-1.85 0.03,-2.42l-0.03 -0.3c-0.07,-0.7 -0.14,-1.38 -0.49,-1.55l-0.3 -0.1zm1.81 -1.27c0.76,0.69 0.86,1.69 0.97,2.72l0.03 0.29c0.07,0.68 0.07,1.8 -0.03,2.82 -0.09,0.88 -0.26,1.73 -0.52,2.24 -0.14,0.29 -0.33,0.51 -0.53,0.67 -0.32,0.25 -0.67,0.36 -1.04,0.35 -0.3,-0.01 -0.59,-0.1 -0.85,-0.23 -0.6,-0.31 -1.13,-0.9 -1.44,-1.29l-0.56 -0.8c-0.32,-0.49 -0.82,-1.4 -1.31,-2.35 -0.53,-1.03 -1.07,-2.13 -1.34,-2.76l-0.14 -0.34c-0.12,-0.3 -0.21,-0.51 -0.38,-0.58 -0.31,-0.13 -2.58,-0.08 -3.84,-0.04l-0.68 0.01c-0.24,0.01 -0.32,-0.48 -0.32,-0.29 0,0.14 0.2,0.55 0.43,1.02l0.35 0.74c0.24,0.55 0.51,1.11 0.79,1.66l0.86 1.62c0.61,1.12 1.22,2.16 1.86,3.16 0.62,0.97 1.27,1.9 1.96,2.8 0.75,0.96 1.18,1.5 1.63,1.95 0.47,0.44 1.01,0.85 1.99,1.54 0.19,0.14 0.46,0.31 0.72,0.46 0.25,0.15 0.51,0.29 0.73,0.39 0.55,0.27 1.17,0.49 1.82,0.64 0.58,0.13 1.18,0.2 1.8,0.19l0.7 0.01c0.58,0.01 1.29,0.03 1.55,-0.03 0.1,-0.03 0.12,-0.32 0.13,-0.69 0.03,-0.75 0.07,-1.62 0.66,-2.52 0.93,-1.39 1.91,-1.39 2.98,-0.67 0.56,0.37 1.09,0.97 1.66,1.63 0.67,0.75 1.41,1.6 2.2,2.05 0.23,0.13 0.43,0.21 0.62,0.25 0.23,0.04 0.49,0.05 0.84,0.04 0.64,-0.02 1.28,-0.01 1.89,0 1.37,0.02 2.59,0.04 2.89,-0.2 0.05,-0.04 -0.21,-0.44 -1.03,-1.47 -0.67,-0.86 -1.38,-1.53 -2.08,-2.19 -0.52,-0.49 -1.03,-0.98 -1.57,-1.59 -1.51,-1.67 -0.72,-2.72 0.42,-4.21l0.88 -1.16c1.17,-1.52 2.81,-3.66 3.22,-4.94 0.05,-0.15 0.27,-0.14 0.19,-0.16 -0.27,-0.09 -0.84,-0.07 -1.46,-0.04l-0.93 0.03 -3.61 0.02c-0.07,0.2 -0.24,0.57 -0.28,0.76 -0.39,0.94 -0.92,2.02 -1.52,3.07 -0.58,1.03 -1.21,2.01 -1.8,2.79 -0.14,0.19 -0.52,0.61 -0.89,0.95 -0.31,0.29 -0.64,0.54 -0.94,0.63 -1.21,0.37 -1.86,-0.29 -2.19,-1.36 -0.3,-0.98 -0.23,-2.37 -0.2,-3.1l0.05 -1.25c0.06,-1.17 0.14,-2.68 -0.14,-3.14 -0.05,-0.08 -0.65,-0.15 -1.43,-0.21 -1.31,-0.1 -2.88,-0.01 -3.77,0.11z"/>
 </g>
</svg>
